<?xml version="1.0" standalone="no"?>
<!DOCTYPE svg PUBLIC "-//W3C//DTD SVG 20010904//EN"
 "http://www.w3.org/TR/2001/REC-SVG-20010904/DTD/svg10.dtd">
<svg version="1.0" xmlns="http://www.w3.org/2000/svg"
 width="260.000000pt" height="260.000000pt" viewBox="0 0 260.000000 260.000000"
 preserveAspectRatio="xMidYMid meet">
<metadata>
Created by potrace 1.14, written by Peter Selinger 2001-2017
</metadata>
<g transform="translate(0.000000,260.000000) scale(0.100000,-0.100000)"
fill="#000000" stroke="none">
<path d="M2518 2586 c-20 -7 -52 -16 -70 -20 -68 -13 -340 -100 -363 -116 -5
-4 -25 -12 -42 -18 -53 -18 -133 -56 -133 -64 0 -4 34 -33 76 -65 42 -32 113
-87 159 -123 46 -36 94 -73 107 -82 13 -10 61 -46 108 -82 47 -35 88 -62 92
-60 6 4 51 142 82 254 8 30 22 98 31 150 10 52 21 115 25 140 15 80 13 100
-12 100 -13 -1 -40 -7 -60 -14z"/>
<path d="M1712 1957 c-50 -19 -102 -65 -123 -111 -64 -140 45 -286 213 -286
130 0 228 90 228 210 0 80 -62 158 -149 188 -43 15 -126 14 -169 -1z"/>
<path d="M735 1500 c-11 -4 -45 -15 -75 -24 -147 -42 -366 -205 -483 -359
-103 -134 -177 -298 -177 -390 l1 -42 31 35 c184 209 272 286 401 355 60 31
99 44 221 73 29 7 37 21 73 127 4 11 28 63 55 114 26 52 48 101 48 108 0 15
-62 17 -95 3z"/>
<path d="M1214 1215 c-29 -12 -169 -164 -321 -345 -71 -85 -322 -386 -362
-434 -15 -18 -15 -18 4 -8 39 20 579 526 690 645 63 68 75 87 73 111 -4 36
-40 50 -84 31z"/>
<path d="M1629 852 c-34 -26 -149 -92 -245 -141 l-81 -41 -7 -65 c-16 -160
-111 -324 -283 -493 -64 -61 -111 -112 -106 -112 6 0 45 11 87 24 288 92 589
399 667 681 21 77 22 156 3 162 -6 2 -22 -5 -35 -15z"/>
</g>
</svg>
